<?xml version='1.0' encoding='utf-8'?>
<!DOCTYPE svg PUBLIC '-//W3C//DTD SVG 1.1//EN' 'http://www.w3.org/Graphics/SVG/1.1/DTD/svg11.dtd'>
<svg version="1.1" xmlns="http://www.w3.org/2000/svg" viewBox="0 0 512 512" xmlns:xlink="http://www.w3.org/1999/xlink" enable-background="new 0 0 512 512">
  <g>
    <g>
      <path d="m245,380.7c-32.8,0-59.4,27-59.4,60.2 0,33.2 26.7,60.2 59.4,60.2 32.8,0 59.4-27 59.4-60.2 0-33.2-26.6-60.2-59.4-60.2zm0,79.5c-10.3,0-18.6-8.7-18.6-19.3 0-10.7 8.3-19.3 18.6-19.3 10.2,0 18.6,8.7 18.6,19.3 0,10.6-8.4,19.3-18.6,19.3z"/>
      <path d="m103.5,380.7c-32.8,0-59.4,27-59.4,60.2-0.1,33.1 26.6,60.1 59.4,60.1 32.8,0 59.4-27 59.4-60.2 0-33.1-26.7-60.1-59.4-60.1zm0,79.5c-10.3,0-18.6-8.7-18.6-19.3 0-10.7 8.3-19.3 18.6-19.3 10.2,0 18.6,8.7 18.6,19.3-0.1,10.6-8.4,19.3-18.6,19.3z"/>
      <path d="m480.6,11h-93.3c-8.8,0-16.6,5.7-19.4,14.1l-73.6,224.3h-189l-45.2-130h212.6c11.3,0 20.4-9.1 20.4-20.4 0-11.3-9.1-20.4-20.4-20.4h-241.3c-16.8,0-22.6,13.5-19.3,27.1l56.1,161.5-39.7,63.3c-10.7,15.2-0.3,31.3 17.3,31.3h260.8c11.3,0 20.4-9.1 20.4-20.4 0-11.3-9.1-20.4-20.4-20.4h-223.8l19.3-30.8h207c8.8,0 16.6-5.7 19.4-14.1l73.6-224.3h78.5c11.3,0 20.4-9.1 20.4-20.4 0-11.3-9.1-20.4-20.4-20.4z"/>
    </g>
  </g>
</svg>
