<svg width="127.93mm" height="127.18mm" version="1.1" viewBox="0 0 127.93 127.18" xmlns="http://www.w3.org/2000/svg" xmlns:xlink="http://www.w3.org/1999/xlink">
 <defs>
  <linearGradient id="linearGradient44825">
   <stop stop-color="#f5be39" offset="0"/>
   <stop stop-color="#ffd699" offset=".34129"/>
   <stop stop-color="#9a5f00" offset=".50827"/>
   <stop stop-color="#cfa344" offset=".61462"/>
   <stop stop-color="#ffd587" offset="1"/>
  </linearGradient>
  <linearGradient id="linearGradient39554">
   <stop stop-color="#f5be39" offset="0"/>
   <stop stop-color="#ffd699" offset=".25054"/>
   <stop stop-color="#9a5f00" offset=".51512"/>
   <stop stop-color="#cfa344" offset=".76189"/>
   <stop stop-color="#ffd587" offset="1"/>
  </linearGradient>
  <linearGradient id="linearGradient38215-3">
   <stop offset="0"/>
   <stop stop-opacity="0" offset="1"/>
  </linearGradient>
  <filter id="filter31099" x="-.033487" y="-.034324" width="1.067" height="1.0686" color-interpolation-filters="sRGB">
   <feGaussianBlur in="SourceAlpha" result="blur" stdDeviation="1.3159239"/>
   <feSpecularLighting lighting-color="#fbf1b8" in="blur" result="specular" specularExponent="25" surfaceScale="10">
    <feDistantLight azimuth="235" elevation="45"/>
   </feSpecularLighting>
   <feComposite in="specular" in2="SourceGraphic" k2="1" k3="1" operator="arithmetic" result="composite1"/>
   <feComposite in="composite1" in2="SourceAlpha" operator="in" result="composite2"/>
  </filter>
  <linearGradient id="linearGradient33819" x1="1.058" x2="156.22" y1="93.184" y2="147.97" gradientUnits="userSpaceOnUse" xlink:href="#linearGradient39554"/>
  <linearGradient id="linearGradient38217" x1="17.85" x2="26.396" y1="136.54" y2="139.01" gradientTransform="translate(1.4015 -.43122)" gradientUnits="userSpaceOnUse" xlink:href="#linearGradient38215-3"/>
  <linearGradient id="linearGradient38219" x1="17.85" x2="26.396" y1="136.54" y2="139.01" gradientUnits="userSpaceOnUse" xlink:href="#linearGradient38215-3"/>
  <linearGradient id="linearGradient41486" x1="43.92" x2="155.89" y1="119.24" y2="119.24" gradientUnits="userSpaceOnUse" xlink:href="#linearGradient39554"/>
  <radialGradient id="radialGradient43628" cx="79.246" cy="120.56" r="37.747" gradientTransform="matrix(1 0 0 1.3557 1.4015 -43.321)" gradientUnits="userSpaceOnUse" xlink:href="#linearGradient39554"/>
  <linearGradient id="linearGradient44571" x1="582.27" x2="610.02" y1="329.46" y2="329.46" gradientUnits="userSpaceOnUse" xlink:href="#linearGradient44825"/>
  <linearGradient id="linearGradient48295" x1="43.92" x2="155.89" y1="119.24" y2="119.24" gradientTransform="translate(-3.3752 -2.6169)" gradientUnits="userSpaceOnUse" xlink:href="#linearGradient39554"/>
  <filter id="filter31099-3" x="-.049432" y="-.046926" width="1.0989" height="1.0939" color-interpolation-filters="sRGB">
   <feGaussianBlur in="SourceAlpha" result="blur" stdDeviation="1.3159239"/>
   <feSpecularLighting lighting-color="#fbf1b8" in="blur" result="specular" specularExponent="25" surfaceScale="10">
    <feDistantLight azimuth="235" elevation="45"/>
   </feSpecularLighting>
   <feComposite in="specular" in2="SourceGraphic" k2="1" k3="1" operator="arithmetic" result="composite1"/>
   <feComposite in="composite1" in2="SourceAlpha" operator="in" result="composite2"/>
  </filter>
  <linearGradient id="linearGradient48376" x1="17.85" x2="26.396" y1="136.54" y2="139.01" gradientTransform="translate(1.3819 4.4649)" gradientUnits="userSpaceOnUse" xlink:href="#linearGradient38215-3"/>
  <linearGradient id="linearGradient48378" x1="1.058" x2="156.22" y1="93.184" y2="147.97" gradientTransform="translate(1.3819 4.4649)" gradientUnits="userSpaceOnUse" xlink:href="#linearGradient39554"/>
 </defs>
 <g transform="translate(-34.049 -49.917)" display="none">
  <text x="57.728901" y="83.175186" fill="#000000" font-family="sans-serif" font-size="10.583px" stroke-width=".26458" style="line-height:1.25" xml:space="preserve"><tspan x="57.728901" y="83.175186" stroke-width=".26458"/></text>
  <text x="93.168434" y="101.1044" fill="#ff00ae" filter="url(#filter31099-3)" font-family="'Have Heart One'" font-size="25.4px" stroke-linejoin="round" stroke-width=".165" text-anchor="middle" style="line-height:0.85" xml:space="preserve"><tspan x="93.168434" y="101.1044" text-align="center">Magic</tspan><tspan x="93.168434" y="123.64259" text-align="center">Moments</tspan><tspan x="93.168434" y="146.18079" text-align="center">Events</tspan></text>
 </g>
 <g transform="translate(-34.049 -49.917)" fill="url(#linearGradient44571)">
  <path transform="matrix(0 .097321 -.096647 0 154.02 94.008)" d="m586.81 342.06 2.0808-9.4704-6.6219-7.0831 9.6499-0.94753 4.6902-8.4866 3.8831 8.8848 9.5205 1.8381-7.25 6.4386 1.1939 9.6226-8.3639-4.9055z" style="paint-order:normal"/>
  <path transform="matrix(0 .097321 -.096647 0 160.37 89.746)" d="m586.81 342.06 2.0808-9.4704-6.6219-7.0831 9.6499-0.94753 4.6902-8.4866 3.8831 8.8848 9.5205 1.8381-7.25 6.4386 1.1939 9.6226-8.3639-4.9055z" style="paint-order:normal"/>
  <path transform="matrix(0 .097321 -.096647 0 153.56 104.12)" d="m586.81 342.06 2.0808-9.4704-6.6219-7.0831 9.6499-0.94753 4.6902-8.4866 3.8831 8.8848 9.5205 1.8381-7.25 6.4386 1.1939 9.6226-8.3639-4.9055z" style="paint-order:normal"/>
  <path transform="matrix(0 .097321 -.096647 0 167.37 85.945)" d="m586.81 342.06 2.0808-9.4704-6.6219-7.0831 9.6499-0.94753 4.6902-8.4866 3.8831 8.8848 9.5205 1.8381-7.25 6.4386 1.1939 9.6226-8.3639-4.9055z" style="paint-order:normal"/>
  <path transform="matrix(0 .26458 -.26458 0 151.54 -70.166)" d="m586.81 342.06 2.0808-9.4704-6.6219-7.0831 9.6499-0.94753 4.6902-8.4866 3.8831 8.8848 9.5205 1.8381-7.25 6.4386 1.1939 9.6226-8.3639-4.9055z" style="paint-order:normal"/>
  <path transform="matrix(0 .26458 -.26458 0 212.28 15.692)" d="m586.81 342.06 2.0808-9.4704-6.6219-7.0831 9.6499-0.94753 4.6902-8.4866 3.8831 8.8848 9.5205 1.8381-7.25 6.4386 1.1939 9.6226-8.3639-4.9055z" style="paint-order:normal"/>
  <path transform="matrix(0 .26458 -.26458 0 222.98 -4.1021)" d="m586.81 342.06 2.0808-9.4704-6.6219-7.0831 9.6499-0.94753 4.6902-8.4866 3.8831 8.8848 9.5205 1.8381-7.25 6.4386 1.1939 9.6226-8.3639-4.9055z" style="paint-order:normal"/>
  <path transform="matrix(0 .26458 -.26458 0 235.27 .54327)" d="m586.81 342.06 2.0808-9.4704-6.6219-7.0831 9.6499-0.94753 4.6902-8.4866 3.8831 8.8848 9.5205 1.8381-7.25 6.4386 1.1939 9.6226-8.3639-4.9055z" style="paint-order:normal"/>
  <path transform="matrix(0 .26458 -.26458 0 243.86 -11.594)" d="m586.81 342.06 2.0808-9.4704-6.6219-7.0831 9.6499-0.94753 4.6902-8.4866 3.8831 8.8848 9.5205 1.8381-7.25 6.4386 1.1939 9.6226-8.3639-4.9055z" style="paint-order:normal"/>
  <path transform="matrix(0 .26458 -.26458 0 211.17 -.27058)" d="m586.81 342.06 2.0808-9.4704-6.6219-7.0831 9.6499-0.94753 4.6902-8.4866 3.8831 8.8848 9.5205 1.8381-7.25 6.4386 1.1939 9.6226-8.3639-4.9055z" style="paint-order:normal"/>
  <path transform="matrix(0 .26458 -.26458 0 195.1 7.1153)" d="m586.81 342.06 2.0808-9.4704-6.6219-7.0831 9.6499-0.94753 4.6902-8.4866 3.8831 8.8848 9.5205 1.8381-7.25 6.4386 1.1939 9.6226-8.3639-4.9055z" style="paint-order:normal"/>
  <path transform="matrix(0 .26458 -.26458 0 223.71 -23.91)" d="m586.81 342.06 2.0808-9.4704-6.6219-7.0831 9.6499-0.94753 4.6902-8.4866 3.8831 8.8848 9.5205 1.8381-7.25 6.4386 1.1939 9.6226-8.3639-4.9055z" style="paint-order:normal"/>
  <path transform="matrix(0 .26458 -.26458 0 124.76 -70.105)" d="m586.81 342.06 2.0808-9.4704-6.6219-7.0831 9.6499-0.94753 4.6902-8.4866 3.8831 8.8848 9.5205 1.8381-7.25 6.4386 1.1939 9.6226-8.3639-4.9055z" style="paint-order:normal"/>
  <path transform="matrix(0 .097321 -.096647 0 192.52 81.545)" d="m586.81 342.06 2.0808-9.4704-6.6219-7.0831 9.6499-0.94753 4.6902-8.4866 3.8831 8.8848 9.5205 1.8381-7.25 6.4386 1.1939 9.6226-8.3639-4.9055z" style="paint-order:normal"/>
  <path transform="matrix(0 .097321 -.096647 0 176.84 106.46)" d="m586.81 342.06 2.0808-9.4704-6.6219-7.0831 9.6499-0.94753 4.6902-8.4866 3.8831 8.8848 9.5205 1.8381-7.25 6.4386 1.1939 9.6226-8.3639-4.9055z" style="paint-order:normal"/>
  <path transform="matrix(0 .097321 -.096647 0 185.25 95.516)" d="m586.81 342.06 2.0808-9.4704-6.6219-7.0831 9.6499-0.94753 4.6902-8.4866 3.8831 8.8848 9.5205 1.8381-7.25 6.4386 1.1939 9.6226-8.3639-4.9055z" style="paint-order:normal"/>
  <path transform="matrix(0 .097321 -.096647 0 149.79 116.65)" d="m586.81 342.06 2.0808-9.4704-6.6219-7.0831 9.6499-0.94753 4.6902-8.4866 3.8831 8.8848 9.5205 1.8381-7.25 6.4386 1.1939 9.6226-8.3639-4.9055z" style="paint-order:normal"/>
  <path transform="matrix(0 .097321 -.096647 0 166.84 105.91)" d="m586.81 342.06 2.0808-9.4704-6.6219-7.0831 9.6499-0.94753 4.6902-8.4866 3.8831 8.8848 9.5205 1.8381-7.25 6.4386 1.1939 9.6226-8.3639-4.9055z" style="paint-order:normal"/>
  <path transform="matrix(0 .097321 -.096647 0 174.66 98.466)" d="m586.81 342.06 2.0808-9.4704-6.6219-7.0831 9.6499-0.94753 4.6902-8.4866 3.8831 8.8848 9.5205 1.8381-7.25 6.4386 1.1939 9.6226-8.3639-4.9055z" style="paint-order:normal"/>
  <path transform="matrix(0 .097321 -.096647 0 185.5 80.768)" d="m586.81 342.06 2.0808-9.4704-6.6219-7.0831 9.6499-0.94753 4.6902-8.4866 3.8831 8.8848 9.5205 1.8381-7.25 6.4386 1.1939 9.6226-8.3639-4.9055z" style="paint-order:normal"/>
  <path transform="matrix(0 .097321 -.096647 0 147.23 105.48)" d="m586.81 342.06 2.0808-9.4704-6.6219-7.0831 9.6499-0.94753 4.6902-8.4866 3.8831 8.8848 9.5205 1.8381-7.25 6.4386 1.1939 9.6226-8.3639-4.9055z" style="paint-order:normal"/>
  <path transform="matrix(0 .097321 -.096647 0 181.73 87.702)" d="m586.81 342.06 2.0808-9.4704-6.6219-7.0831 9.6499-0.94753 4.6902-8.4866 3.8831 8.8848 9.5205 1.8381-7.25 6.4386 1.1939 9.6226-8.3639-4.9055z" style="paint-order:normal"/>
  <path transform="matrix(0 .097321 -.096647 0 161 98.372)" d="m586.81 342.06 2.0808-9.4704-6.6219-7.0831 9.6499-0.94753 4.6902-8.4866 3.8831 8.8848 9.5205 1.8381-7.25 6.4386 1.1939 9.6226-8.3639-4.9055z" style="paint-order:normal"/>
  <path transform="matrix(0 .26458 -.26458 0 135.93 -80.02)" d="m586.81 342.06 2.0808-9.4704-6.6219-7.0831 9.6499-0.94753 4.6902-8.4866 3.8831 8.8848 9.5205 1.8381-7.25 6.4386 1.1939 9.6226-8.3639-4.9055z" style="paint-order:normal"/>
  <path transform="matrix(0 .26458 -.26458 0 158.82 -95.551)" d="m586.81 342.06 2.0808-9.4704-6.6219-7.0831 9.6499-0.94753 4.6902-8.4866 3.8831 8.8848 9.5205 1.8381-7.25 6.4386 1.1939 9.6226-8.3639-4.9055z" style="paint-order:normal"/>
  <path transform="matrix(0 .26458 -.26458 0 141.81 -96.331)" d="m586.81 342.06 2.0808-9.4704-6.6219-7.0831 9.6499-0.94753 4.6902-8.4866 3.8831 8.8848 9.5205 1.8381-7.25 6.4386 1.1939 9.6226-8.3639-4.9055z" style="paint-order:normal"/>
  <path transform="matrix(0 .26458 -.26458 0 162.98 -81.725)" d="m586.81 342.06 2.0808-9.4704-6.6219-7.0831 9.6499-0.94753 4.6902-8.4866 3.8831 8.8848 9.5205 1.8381-7.25 6.4386 1.1939 9.6226-8.3639-4.9055z" style="paint-order:normal"/>
  <path transform="matrix(0 .26458 -.26458 0 190.83 -102.47)" d="m586.81 342.06 2.0808-9.4704-6.6219-7.0831 9.6499-0.94753 4.6902-8.4866 3.8831 8.8848 9.5205 1.8381-7.25 6.4386 1.1939 9.6226-8.3639-4.9055z" style="paint-order:normal"/>
  <path transform="matrix(0 .26458 -.26458 0 126.62 -54.893)" d="m586.81 342.06 2.0808-9.4704-6.6219-7.0831 9.6499-0.94753 4.6902-8.4866 3.8831 8.8848 9.5205 1.8381-7.25 6.4386 1.1939 9.6226-8.3639-4.9055z" style="paint-order:normal"/>
  <path transform="matrix(0 .097321 -.096647 0 158.37 111.09)" d="m586.81 342.06 2.0808-9.4704-6.6219-7.0831 9.6499-0.94753 4.6902-8.4866 3.8831 8.8848 9.5205 1.8381-7.25 6.4386 1.1939 9.6226-8.3639-4.9055z" style="paint-order:normal"/>
  <path transform="matrix(0 .097321 -.096647 0 118.64 2.4917)" d="m586.81 342.06 2.0808-9.4704-6.6219-7.0831 9.6499-0.94753 4.6902-8.4866 3.8831 8.8848 9.5205 1.8381-7.25 6.4386 1.1939 9.6226-8.3639-4.9055z" style="paint-order:normal"/>
  <path transform="matrix(0 .097321 -.096647 0 100.9 9.06)" d="m586.81 342.06 2.0808-9.4704-6.6219-7.0831 9.6499-0.94753 4.6902-8.4866 3.8831 8.8848 9.5205 1.8381-7.25 6.4386 1.1939 9.6226-8.3639-4.9055z" style="paint-order:normal"/>
  <path transform="matrix(0 .097321 -.096647 0 78.57 13.959)" d="m586.81 342.06 2.0808-9.4704-6.6219-7.0831 9.6499-0.94753 4.6902-8.4866 3.8831 8.8848 9.5205 1.8381-7.25 6.4386 1.1939 9.6226-8.3639-4.9055z" style="paint-order:normal"/>
  <path transform="matrix(0 .097321 -.096647 0 82.893 12.369)" d="m586.81 342.06 2.0808-9.4704-6.6219-7.0831 9.6499-0.94753 4.6902-8.4866 3.8831 8.8848 9.5205 1.8381-7.25 6.4386 1.1939 9.6226-8.3639-4.9055z" style="paint-order:normal"/>
  <path transform="matrix(0 .097321 -.096647 0 95.433 .48688)" d="m586.81 342.06 2.0808-9.4704-6.6219-7.0831 9.6499-0.94753 4.6902-8.4866 3.8831 8.8848 9.5205 1.8381-7.25 6.4386 1.1939 9.6226-8.3639-4.9055z" style="paint-order:normal"/>
  <path transform="matrix(0 .097321 -.096647 0 116.44 19.254)" d="m586.81 342.06 2.0808-9.4704-6.6219-7.0831 9.6499-0.94753 4.6902-8.4866 3.8831 8.8848 9.5205 1.8381-7.25 6.4386 1.1939 9.6226-8.3639-4.9055z" style="paint-order:normal"/>
  <path transform="matrix(0 .097321 -.096647 0 103.91 25.423)" d="m586.81 342.06 2.0808-9.4704-6.6219-7.0831 9.6499-0.94753 4.6902-8.4866 3.8831 8.8848 9.5205 1.8381-7.25 6.4386 1.1939 9.6226-8.3639-4.9055z" style="paint-order:normal"/>
  <path transform="matrix(0 .097321 -.096647 0 67.464 36.225)" d="m586.81 342.06 2.0808-9.4704-6.6219-7.0831 9.6499-0.94753 4.6902-8.4866 3.8831 8.8848 9.5205 1.8381-7.25 6.4386 1.1939 9.6226-8.3639-4.9055z" style="paint-order:normal"/>
  <path transform="matrix(0 .097321 -.096647 0 89.527 34.262)" d="m586.81 342.06 2.0808-9.4704-6.6219-7.0831 9.6499-0.94753 4.6902-8.4866 3.8831 8.8848 9.5205 1.8381-7.25 6.4386 1.1939 9.6226-8.3639-4.9055z" style="paint-order:normal"/>
  <path transform="matrix(0 .097321 -.096647 0 142.66 1.8664)" d="m586.81 342.06 2.0808-9.4704-6.6219-7.0831 9.6499-0.94753 4.6902-8.4866 3.8831 8.8848 9.5205 1.8381-7.25 6.4386 1.1939 9.6226-8.3639-4.9055z" style="paint-order:normal"/>
  <path transform="matrix(0 .097321 -.096647 0 71.81 20.083)" d="m586.81 342.06 2.0808-9.4704-6.6219-7.0831 9.6499-0.94753 4.6902-8.4866 3.8831 8.8848 9.5205 1.8381-7.25 6.4386 1.1939 9.6226-8.3639-4.9055z" style="paint-order:normal"/>
  <path transform="matrix(0 .097321 -.096647 0 105.83 -.26982)" d="m586.81 342.06 2.0808-9.4704-6.6219-7.0831 9.6499-0.94753 4.6902-8.4866 3.8831 8.8848 9.5205 1.8381-7.25 6.4386 1.1939 9.6226-8.3639-4.9055z" style="paint-order:normal"/>
  <path transform="matrix(0 .26458 -.26458 0 179.12 -89.805)" d="m586.81 342.06 2.0808-9.4704-6.6219-7.0831 9.6499-0.94753 4.6902-8.4866 3.8831 8.8848 9.5205 1.8381-7.25 6.4386 1.1939 9.6226-8.3639-4.9055z" style="paint-order:normal"/>
  <path transform="matrix(0 .097321 -.096647 0 128.03 -6.0136)" d="m586.81 342.06 2.0808-9.4704-6.6219-7.0831 9.6499-0.94753 4.6902-8.4866 3.8831 8.8848 9.5205 1.8381-7.25 6.4386 1.1939 9.6226-8.3639-4.9055z" style="paint-order:normal"/>
  <path transform="matrix(0 .097321 -.096647 0 76.349 25.176)" d="m586.81 342.06 2.0808-9.4704-6.6219-7.0831 9.6499-0.94753 4.6902-8.4866 3.8831 8.8848 9.5205 1.8381-7.25 6.4386 1.1939 9.6226-8.3639-4.9055z" style="paint-order:normal"/>
  <path transform="matrix(0 .097321 -.096647 0 113.53 3.7674)" d="m586.81 342.06 2.0808-9.4704-6.6219-7.0831 9.6499-0.94753 4.6902-8.4866 3.8831 8.8848 9.5205 1.8381-7.25 6.4386 1.1939 9.6226-8.3639-4.9055z" style="paint-order:normal"/>
  <path transform="matrix(0 .097321 -.096647 0 94.378 10.34)" d="m586.81 342.06 2.0808-9.4704-6.6219-7.0831 9.6499-0.94753 4.6902-8.4866 3.8831 8.8848 9.5205 1.8381-7.25 6.4386 1.1939 9.6226-8.3639-4.9055z" style="paint-order:normal"/>
  <path transform="matrix(0 .097321 -.096647 0 115.36 -6.7506)" d="m586.81 342.06 2.0808-9.4704-6.6219-7.0831 9.6499-0.94753 4.6902-8.4866 3.8831 8.8848 9.5205 1.8381-7.25 6.4386 1.1939 9.6226-8.3639-4.9055z" style="paint-order:normal"/>
  <path transform="matrix(0 .097321 -.096647 0 128.5 10.756)" d="m586.81 342.06 2.0808-9.4704-6.6219-7.0831 9.6499-0.94753 4.6902-8.4866 3.8831 8.8848 9.5205 1.8381-7.25 6.4386 1.1939 9.6226-8.3639-4.9055z" style="paint-order:normal"/>
  <path transform="matrix(0 .097321 -.096647 0 120.59 13.959)" d="m586.81 342.06 2.0808-9.4704-6.6219-7.0831 9.6499-0.94753 4.6902-8.4866 3.8831 8.8848 9.5205 1.8381-7.25 6.4386 1.1939 9.6226-8.3639-4.9055z" style="paint-order:normal"/>
  <path transform="matrix(0 .097321 -.096647 0 128.22 4.2553)" d="m586.81 342.06 2.0808-9.4704-6.6219-7.0831 9.6499-0.94753 4.6902-8.4866 3.8831 8.8848 9.5205 1.8381-7.25 6.4386 1.1939 9.6226-8.3639-4.9055z" style="paint-order:normal"/>
  <path transform="matrix(0 .097321 -.096647 0 82.93 47.705)" d="m586.81 342.06 2.0808-9.4704-6.6219-7.0831 9.6499-0.94753 4.6902-8.4866 3.8831 8.8848 9.5205 1.8381-7.25 6.4386 1.1939 9.6226-8.3639-4.9055z" style="paint-order:normal"/>
 </g>
 <g transform="translate(-34.049 -49.917)" display="none">
  <g fill="none" stroke="#000" stroke-width="1.858">
   <ellipse cx="93.31" cy="119.77" rx="59.217" ry="53.04" stroke-linejoin="round" style="paint-order:normal"/>
   <ellipse cx="88.892" cy="117.09" rx="59.217" ry="53.04" stroke-linejoin="round" style="paint-order:normal"/>
   <path d="m96.949 169.73c-4.5652 0.35805-9.1307 0.71613-13.562-0.49229s-8.728-3.9834-12.13-6.4452-5.9082-4.6102-7.5196-6.2215-2.3275-2.6855-3.0439-3.76"/>
   <path d="m124.34 74.927c-5.2813-1.9693-10.563-3.9387-14.949-5.4605s-7.8776-2.596-13.159-1.5666c-5.2818 1.0294-12.354 4.1625-17.322 7.2062-4.9684 3.0437-7.8329 5.9977-10.698 8.9519"/>
  </g>
  <g stroke-linejoin="round" stroke-width="1.058">
   <ellipse cx="91.578" cy="120.04" rx="55.054" ry="53.711" fill="url(#linearGradient38219)" filter="url(#filter31099)" stroke="url(#linearGradient33819)" style="paint-order:normal"/>
   <ellipse cx="92.959" cy="124.51" rx="55.054" ry="53.711" fill="url(#linearGradient48376)" filter="url(#filter31099-3)" stroke="url(#linearGradient48378)" style="paint-order:normal"/>
   <ellipse cx="99.903" cy="119.24" rx="55.054" ry="53.711" fill="none" stroke="url(#linearGradient41486)" style="paint-order:normal"/>
   <ellipse cx="96.528" cy="116.62" rx="55.054" ry="53.711" fill="none" stroke="url(#linearGradient48295)" style="paint-order:normal"/>
   <path d="m118.08 167a55.054 53.711 0 0 1-69.167-27.813 55.054 53.711 0 0 1 23.118-69.415" fill="url(#linearGradient38217)" stroke="url(#radialGradient43628)" style="paint-order:normal"/>
  </g>
 </g>
 <script id="mesh_polyfill" type="text/javascript">!function(){const t="http://www.w3.org/2000/svg",e="http://www.w3.org/1999/xlink",s="http://www.w3.org/1999/xhtml",r=2;if(document.createElementNS(t,"meshgradient").x)return;const n=(t,e,s,r)=&gt;{let n=new x(.5*(e.x+s.x),.5*(e.y+s.y)),o=new x(.5*(t.x+e.x),.5*(t.y+e.y)),i=new x(.5*(s.x+r.x),.5*(s.y+r.y)),a=new x(.5*(n.x+o.x),.5*(n.y+o.y)),h=new x(.5*(n.x+i.x),.5*(n.y+i.y)),l=new x(.5*(a.x+h.x),.5*(a.y+h.y));return[[t,o,a,l],[l,h,i,r]]},o=t=&gt;{let e=t[0].distSquared(t[1]),s=t[2].distSquared(t[3]),r=.25*t[0].distSquared(t[2]),n=.25*t[1].distSquared(t[3]),o=e&gt;s?e:s,i=r&gt;n?r:n;return 18*(o&gt;i?o:i)},i=(t,e)=&gt;Math.sqrt(t.distSquared(e)),a=(t,e)=&gt;t.scale(2/3).add(e.scale(1/3)),h=t=&gt;{let e,s,r,n,o,i,a,h=new g;return t.match(/(\w+\(\s*[^)]+\))+/g).forEach(t=&gt;{let l=t.match(/[\w.-]+/g),d=l.shift();switch(d){case"translate":2===l.length?e=new g(1,0,0,1,l[0],l[1]):(console.error("mesh.js: translate does not have 2 arguments!"),e=new g(1,0,0,1,0,0)),h=h.append(e);break;case"scale":1===l.length?s=new g(l[0],0,0,l[0],0,0):2===l.length?s=new g(l[0],0,0,l[1],0,0):(console.error("mesh.js: scale does not have 1 or 2 arguments!"),s=new g(1,0,0,1,0,0)),h=h.append(s);break;case"rotate":if(3===l.length&amp;&amp;(e=new g(1,0,0,1,l[1],l[2]),h=h.append(e)),l[0]){r=l[0]*Math.PI/180;let t=Math.cos(r),e=Math.sin(r);Math.abs(t)&lt;1e-16&amp;&amp;(t=0),Math.abs(e)&lt;1e-16&amp;&amp;(e=0),a=new g(t,e,-e,t,0,0),h=h.append(a)}else console.error("math.js: No argument to rotate transform!");3===l.length&amp;&amp;(e=new g(1,0,0,1,-l[1],-l[2]),h=h.append(e));break;case"skewX":l[0]?(r=l[0]*Math.PI/180,n=Math.tan(r),o=new g(1,0,n,1,0,0),h=h.append(o)):console.error("math.js: No argument to skewX transform!");break;case"skewY":l[0]?(r=l[0]*Math.PI/180,n=Math.tan(r),i=new g(1,n,0,1,0,0),h=h.append(i)):console.error("math.js: No argument to skewY transform!");break;case"matrix":6===l.length?h=h.append(new g(...l)):console.error("math.js: Incorrect number of arguments for matrix!");break;default:console.error("mesh.js: Unhandled transform type: "+d)}}),h},l=t=&gt;{let e=[],s=t.split(/[ ,]+/);for(let t=0,r=s.length-1;t&lt;r;t+=2)e.push(new x(parseFloat(s[t]),parseFloat(s[t+1])));return e},d=(t,e)=&gt;{for(let s in e)t.setAttribute(s,e[s])},c=(t,e,s,r,n)=&gt;{let o,i,a=[0,0,0,0];for(let h=0;h&lt;3;++h)e[h]&lt;t[h]&amp;&amp;e[h]&lt;s[h]||t[h]&lt;e[h]&amp;&amp;s[h]&lt;e[h]?a[h]=0:(a[h]=.5*((e[h]-t[h])/r+(s[h]-e[h])/n),o=Math.abs(3*(e[h]-t[h])/r),i=Math.abs(3*(s[h]-e[h])/n),a[h]&gt;o?a[h]=o:a[h]&gt;i&amp;&amp;(a[h]=i));return a},u=[[1,0,0,0,0,0,0,0,0,0,0,0,0,0,0,0],[0,0,0,0,1,0,0,0,0,0,0,0,0,0,0,0],[-3,3,0,0,-2,-1,0,0,0,0,0,0,0,0,0,0],[2,-2,0,0,1,1,0,0,0,0,0,0,0,0,0,0],[0,0,0,0,0,0,0,0,1,0,0,0,0,0,0,0],[0,0,0,0,0,0,0,0,0,0,0,0,1,0,0,0],[0,0,0,0,0,0,0,0,-3,3,0,0,-2,-1,0,0],[0,0,0,0,0,0,0,0,2,-2,0,0,1,1,0,0],[-3,0,3,0,0,0,0,0,-2,0,-1,0,0,0,0,0],[0,0,0,0,-3,0,3,0,0,0,0,0,-2,0,-1,0],[9,-9,-9,9,6,3,-6,-3,6,-6,3,-3,4,2,2,1],[-6,6,6,-6,-3,-3,3,3,-4,4,-2,2,-2,-2,-1,-1],[2,0,-2,0,0,0,0,0,1,0,1,0,0,0,0,0],[0,0,0,0,2,0,-2,0,0,0,0,0,1,0,1,0],[-6,6,6,-6,-4,-2,4,2,-3,3,-3,3,-2,-1,-2,-1],[4,-4,-4,4,2,2,-2,-2,2,-2,2,-2,1,1,1,1]],f=t=&gt;{let e=[];for(let s=0;s&lt;16;++s){e[s]=0;for(let r=0;r&lt;16;++r)e[s]+=u[s][r]*t[r]}return e},p=(t,e,s)=&gt;{const r=e*e,n=s*s,o=e*e*e,i=s*s*s;return t[0]+t[1]*e+t[2]*r+t[3]*o+t[4]*s+t[5]*s*e+t[6]*s*r+t[7]*s*o+t[8]*n+t[9]*n*e+t[10]*n*r+t[11]*n*o+t[12]*i+t[13]*i*e+t[14]*i*r+t[15]*i*o},y=t=&gt;{let e=[],s=[],r=[];for(let s=0;s&lt;4;++s)e[s]=[],e[s][0]=n(t[0][s],t[1][s],t[2][s],t[3][s]),e[s][1]=[],e[s][1].push(...n(...e[s][0][0])),e[s][1].push(...n(...e[s][0][1])),e[s][2]=[],e[s][2].push(...n(...e[s][1][0])),e[s][2].push(...n(...e[s][1][1])),e[s][2].push(...n(...e[s][1][2])),e[s][2].push(...n(...e[s][1][3]));for(let t=0;t&lt;8;++t){s[t]=[];for(let r=0;r&lt;4;++r)s[t][r]=[],s[t][r][0]=n(e[0][2][t][r],e[1][2][t][r],e[2][2][t][r],e[3][2][t][r]),s[t][r][1]=[],s[t][r][1].push(...n(...s[t][r][0][0])),s[t][r][1].push(...n(...s[t][r][0][1])),s[t][r][2]=[],s[t][r][2].push(...n(...s[t][r][1][0])),s[t][r][2].push(...n(...s[t][r][1][1])),s[t][r][2].push(...n(...s[t][r][1][2])),s[t][r][2].push(...n(...s[t][r][1][3]))}for(let t=0;t&lt;8;++t){r[t]=[];for(let e=0;e&lt;8;++e)r[t][e]=[],r[t][e][0]=s[t][0][2][e],r[t][e][1]=s[t][1][2][e],r[t][e][2]=s[t][2][2][e],r[t][e][3]=s[t][3][2][e]}return r};class x{constructor(t,e){this.x=t||0,this.y=e||0}toString(){return`(x=${this.x}, y=${this.y})`}clone(){return new x(this.x,this.y)}add(t){return new x(this.x+t.x,this.y+t.y)}scale(t){return void 0===t.x?new x(this.x*t,this.y*t):new x(this.x*t.x,this.y*t.y)}distSquared(t){let e=this.x-t.x,s=this.y-t.y;return e*e+s*s}transform(t){let e=this.x*t.a+this.y*t.c+t.e,s=this.x*t.b+this.y*t.d+t.f;return new x(e,s)}}class g{constructor(t,e,s,r,n,o){void 0===t?(this.a=1,this.b=0,this.c=0,this.d=1,this.e=0,this.f=0):(this.a=t,this.b=e,this.c=s,this.d=r,this.e=n,this.f=o)}toString(){return`affine: ${this.a} ${this.c} ${this.e} \n       ${this.b} ${this.d} ${this.f}`}append(t){t instanceof g||console.error("mesh.js: argument to Affine.append is not affine!");let e=this.a*t.a+this.c*t.b,s=this.b*t.a+this.d*t.b,r=this.a*t.c+this.c*t.d,n=this.b*t.c+this.d*t.d,o=this.a*t.e+this.c*t.f+this.e,i=this.b*t.e+this.d*t.f+this.f;return new g(e,s,r,n,o,i)}}class w{constructor(t,e){this.nodes=t,this.colors=e}paintCurve(t,e){if(o(this.nodes)&gt;r){const s=n(...this.nodes);let r=[[],[]],o=[[],[]];for(let t=0;t&lt;4;++t)r[0][t]=this.colors[0][t],r[1][t]=(this.colors[0][t]+this.colors[1][t])/2,o[0][t]=r[1][t],o[1][t]=this.colors[1][t];let i=new w(s[0],r),a=new w(s[1],o);i.paintCurve(t,e),a.paintCurve(t,e)}else{let s=Math.round(this.nodes[0].x);if(s&gt;=0&amp;&amp;s&lt;e){let r=4*(~~this.nodes[0].y*e+s);t[r]=Math.round(this.colors[0][0]),t[r+1]=Math.round(this.colors[0][1]),t[r+2]=Math.round(this.colors[0][2]),t[r+3]=Math.round(this.colors[0][3])}}}}class m{constructor(t,e){this.nodes=t,this.colors=e}split(){let t=[[],[],[],[]],e=[[],[],[],[]],s=[[[],[]],[[],[]]],r=[[[],[]],[[],[]]];for(let s=0;s&lt;4;++s){const r=n(this.nodes[0][s],this.nodes[1][s],this.nodes[2][s],this.nodes[3][s]);t[0][s]=r[0][0],t[1][s]=r[0][1],t[2][s]=r[0][2],t[3][s]=r[0][3],e[0][s]=r[1][0],e[1][s]=r[1][1],e[2][s]=r[1][2],e[3][s]=r[1][3]}for(let t=0;t&lt;4;++t)s[0][0][t]=this.colors[0][0][t],s[0][1][t]=this.colors[0][1][t],s[1][0][t]=(this.colors[0][0][t]+this.colors[1][0][t])/2,s[1][1][t]=(this.colors[0][1][t]+this.colors[1][1][t])/2,r[0][0][t]=s[1][0][t],r[0][1][t]=s[1][1][t],r[1][0][t]=this.colors[1][0][t],r[1][1][t]=this.colors[1][1][t];return[new m(t,s),new m(e,r)]}paint(t,e){let s,n=!1;for(let t=0;t&lt;4;++t)if((s=o([this.nodes[0][t],this.nodes[1][t],this.nodes[2][t],this.nodes[3][t]]))&gt;r){n=!0;break}if(n){let s=this.split();s[0].paint(t,e),s[1].paint(t,e)}else{new w([...this.nodes[0]],[...this.colors[0]]).paintCurve(t,e)}}}class b{constructor(t){this.readMesh(t),this.type=t.getAttribute("type")||"bilinear"}readMesh(t){let e=[[]],s=[[]],r=Number(t.getAttribute("x")),n=Number(t.getAttribute("y"));e[0][0]=new x(r,n);let o=t.children;for(let t=0,r=o.length;t&lt;r;++t){e[3*t+1]=[],e[3*t+2]=[],e[3*t+3]=[],s[t+1]=[];let r=o[t].children;for(let n=0,o=r.length;n&lt;o;++n){let o=r[n].children;for(let r=0,i=o.length;r&lt;i;++r){let i=r;0!==t&amp;&amp;++i;let h,d=o[r].getAttribute("path"),c="l";null!=d&amp;&amp;(c=(h=d.match(/\s*([lLcC])\s*(.*)/))[1]);let u=l(h[2]);switch(c){case"l":0===i?(e[3*t][3*n+3]=u[0].add(e[3*t][3*n]),e[3*t][3*n+1]=a(e[3*t][3*n],e[3*t][3*n+3]),e[3*t][3*n+2]=a(e[3*t][3*n+3],e[3*t][3*n])):1===i?(e[3*t+3][3*n+3]=u[0].add(e[3*t][3*n+3]),e[3*t+1][3*n+3]=a(e[3*t][3*n+3],e[3*t+3][3*n+3]),e[3*t+2][3*n+3]=a(e[3*t+3][3*n+3],e[3*t][3*n+3])):2===i?(0===n&amp;&amp;(e[3*t+3][3*n+0]=u[0].add(e[3*t+3][3*n+3])),e[3*t+3][3*n+1]=a(e[3*t+3][3*n],e[3*t+3][3*n+3]),e[3*t+3][3*n+2]=a(e[3*t+3][3*n+3],e[3*t+3][3*n])):(e[3*t+1][3*n]=a(e[3*t][3*n],e[3*t+3][3*n]),e[3*t+2][3*n]=a(e[3*t+3][3*n],e[3*t][3*n]));break;case"L":0===i?(e[3*t][3*n+3]=u[0],e[3*t][3*n+1]=a(e[3*t][3*n],e[3*t][3*n+3]),e[3*t][3*n+2]=a(e[3*t][3*n+3],e[3*t][3*n])):1===i?(e[3*t+3][3*n+3]=u[0],e[3*t+1][3*n+3]=a(e[3*t][3*n+3],e[3*t+3][3*n+3]),e[3*t+2][3*n+3]=a(e[3*t+3][3*n+3],e[3*t][3*n+3])):2===i?(0===n&amp;&amp;(e[3*t+3][3*n+0]=u[0]),e[3*t+3][3*n+1]=a(e[3*t+3][3*n],e[3*t+3][3*n+3]),e[3*t+3][3*n+2]=a(e[3*t+3][3*n+3],e[3*t+3][3*n])):(e[3*t+1][3*n]=a(e[3*t][3*n],e[3*t+3][3*n]),e[3*t+2][3*n]=a(e[3*t+3][3*n],e[3*t][3*n]));break;case"c":0===i?(e[3*t][3*n+1]=u[0].add(e[3*t][3*n]),e[3*t][3*n+2]=u[1].add(e[3*t][3*n]),e[3*t][3*n+3]=u[2].add(e[3*t][3*n])):1===i?(e[3*t+1][3*n+3]=u[0].add(e[3*t][3*n+3]),e[3*t+2][3*n+3]=u[1].add(e[3*t][3*n+3]),e[3*t+3][3*n+3]=u[2].add(e[3*t][3*n+3])):2===i?(e[3*t+3][3*n+2]=u[0].add(e[3*t+3][3*n+3]),e[3*t+3][3*n+1]=u[1].add(e[3*t+3][3*n+3]),0===n&amp;&amp;(e[3*t+3][3*n+0]=u[2].add(e[3*t+3][3*n+3]))):(e[3*t+2][3*n]=u[0].add(e[3*t+3][3*n]),e[3*t+1][3*n]=u[1].add(e[3*t+3][3*n]));break;case"C":0===i?(e[3*t][3*n+1]=u[0],e[3*t][3*n+2]=u[1],e[3*t][3*n+3]=u[2]):1===i?(e[3*t+1][3*n+3]=u[0],e[3*t+2][3*n+3]=u[1],e[3*t+3][3*n+3]=u[2]):2===i?(e[3*t+3][3*n+2]=u[0],e[3*t+3][3*n+1]=u[1],0===n&amp;&amp;(e[3*t+3][3*n+0]=u[2])):(e[3*t+2][3*n]=u[0],e[3*t+1][3*n]=u[1]);break;default:console.error("mesh.js: "+c+" invalid path type.")}if(0===t&amp;&amp;0===n||r&gt;0){let e=window.getComputedStyle(o[r]).stopColor.match(/^rgb\s*\(\s*(\d+)\s*,\s*(\d+)\s*,\s*(\d+)\s*\)$/i),a=window.getComputedStyle(o[r]).stopOpacity,h=255;a&amp;&amp;(h=Math.floor(255*a)),e&amp;&amp;(0===i?(s[t][n]=[],s[t][n][0]=Math.floor(e[1]),s[t][n][1]=Math.floor(e[2]),s[t][n][2]=Math.floor(e[3]),s[t][n][3]=h):1===i?(s[t][n+1]=[],s[t][n+1][0]=Math.floor(e[1]),s[t][n+1][1]=Math.floor(e[2]),s[t][n+1][2]=Math.floor(e[3]),s[t][n+1][3]=h):2===i?(s[t+1][n+1]=[],s[t+1][n+1][0]=Math.floor(e[1]),s[t+1][n+1][1]=Math.floor(e[2]),s[t+1][n+1][2]=Math.floor(e[3]),s[t+1][n+1][3]=h):3===i&amp;&amp;(s[t+1][n]=[],s[t+1][n][0]=Math.floor(e[1]),s[t+1][n][1]=Math.floor(e[2]),s[t+1][n][2]=Math.floor(e[3]),s[t+1][n][3]=h))}}e[3*t+1][3*n+1]=new x,e[3*t+1][3*n+2]=new x,e[3*t+2][3*n+1]=new x,e[3*t+2][3*n+2]=new x,e[3*t+1][3*n+1].x=(-4*e[3*t][3*n].x+6*(e[3*t][3*n+1].x+e[3*t+1][3*n].x)+-2*(e[3*t][3*n+3].x+e[3*t+3][3*n].x)+3*(e[3*t+3][3*n+1].x+e[3*t+1][3*n+3].x)+-1*e[3*t+3][3*n+3].x)/9,e[3*t+1][3*n+2].x=(-4*e[3*t][3*n+3].x+6*(e[3*t][3*n+2].x+e[3*t+1][3*n+3].x)+-2*(e[3*t][3*n].x+e[3*t+3][3*n+3].x)+3*(e[3*t+3][3*n+2].x+e[3*t+1][3*n].x)+-1*e[3*t+3][3*n].x)/9,e[3*t+2][3*n+1].x=(-4*e[3*t+3][3*n].x+6*(e[3*t+3][3*n+1].x+e[3*t+2][3*n].x)+-2*(e[3*t+3][3*n+3].x+e[3*t][3*n].x)+3*(e[3*t][3*n+1].x+e[3*t+2][3*n+3].x)+-1*e[3*t][3*n+3].x)/9,e[3*t+2][3*n+2].x=(-4*e[3*t+3][3*n+3].x+6*(e[3*t+3][3*n+2].x+e[3*t+2][3*n+3].x)+-2*(e[3*t+3][3*n].x+e[3*t][3*n+3].x)+3*(e[3*t][3*n+2].x+e[3*t+2][3*n].x)+-1*e[3*t][3*n].x)/9,e[3*t+1][3*n+1].y=(-4*e[3*t][3*n].y+6*(e[3*t][3*n+1].y+e[3*t+1][3*n].y)+-2*(e[3*t][3*n+3].y+e[3*t+3][3*n].y)+3*(e[3*t+3][3*n+1].y+e[3*t+1][3*n+3].y)+-1*e[3*t+3][3*n+3].y)/9,e[3*t+1][3*n+2].y=(-4*e[3*t][3*n+3].y+6*(e[3*t][3*n+2].y+e[3*t+1][3*n+3].y)+-2*(e[3*t][3*n].y+e[3*t+3][3*n+3].y)+3*(e[3*t+3][3*n+2].y+e[3*t+1][3*n].y)+-1*e[3*t+3][3*n].y)/9,e[3*t+2][3*n+1].y=(-4*e[3*t+3][3*n].y+6*(e[3*t+3][3*n+1].y+e[3*t+2][3*n].y)+-2*(e[3*t+3][3*n+3].y+e[3*t][3*n].y)+3*(e[3*t][3*n+1].y+e[3*t+2][3*n+3].y)+-1*e[3*t][3*n+3].y)/9,e[3*t+2][3*n+2].y=(-4*e[3*t+3][3*n+3].y+6*(e[3*t+3][3*n+2].y+e[3*t+2][3*n+3].y)+-2*(e[3*t+3][3*n].y+e[3*t][3*n+3].y)+3*(e[3*t][3*n+2].y+e[3*t+2][3*n].y)+-1*e[3*t][3*n].y)/9}}this.nodes=e,this.colors=s}paintMesh(t,e){let s=(this.nodes.length-1)/3,r=(this.nodes[0].length-1)/3;if("bilinear"===this.type||s&lt;2||r&lt;2){let n;for(let o=0;o&lt;s;++o)for(let s=0;s&lt;r;++s){let r=[];for(let t=3*o,e=3*o+4;t&lt;e;++t)r.push(this.nodes[t].slice(3*s,3*s+4));let i=[];i.push(this.colors[o].slice(s,s+2)),i.push(this.colors[o+1].slice(s,s+2)),(n=new m(r,i)).paint(t,e)}}else{let n,o,a,h,l,d,u;const x=s,g=r;s++,r++;let w=new Array(s);for(let t=0;t&lt;s;++t){w[t]=new Array(r);for(let e=0;e&lt;r;++e)w[t][e]=[],w[t][e][0]=this.nodes[3*t][3*e],w[t][e][1]=this.colors[t][e]}for(let t=0;t&lt;s;++t)for(let e=0;e&lt;r;++e)0!==t&amp;&amp;t!==x&amp;&amp;(n=i(w[t-1][e][0],w[t][e][0]),o=i(w[t+1][e][0],w[t][e][0]),w[t][e][2]=c(w[t-1][e][1],w[t][e][1],w[t+1][e][1],n,o)),0!==e&amp;&amp;e!==g&amp;&amp;(n=i(w[t][e-1][0],w[t][e][0]),o=i(w[t][e+1][0],w[t][e][0]),w[t][e][3]=c(w[t][e-1][1],w[t][e][1],w[t][e+1][1],n,o));for(let t=0;t&lt;r;++t){w[0][t][2]=[],w[x][t][2]=[];for(let e=0;e&lt;4;++e)n=i(w[1][t][0],w[0][t][0]),o=i(w[x][t][0],w[x-1][t][0]),w[0][t][2][e]=n&gt;0?2*(w[1][t][1][e]-w[0][t][1][e])/n-w[1][t][2][e]:0,w[x][t][2][e]=o&gt;0?2*(w[x][t][1][e]-w[x-1][t][1][e])/o-w[x-1][t][2][e]:0}for(let t=0;t&lt;s;++t){w[t][0][3]=[],w[t][g][3]=[];for(let e=0;e&lt;4;++e)n=i(w[t][1][0],w[t][0][0]),o=i(w[t][g][0],w[t][g-1][0]),w[t][0][3][e]=n&gt;0?2*(w[t][1][1][e]-w[t][0][1][e])/n-w[t][1][3][e]:0,w[t][g][3][e]=o&gt;0?2*(w[t][g][1][e]-w[t][g-1][1][e])/o-w[t][g-1][3][e]:0}for(let s=0;s&lt;x;++s)for(let r=0;r&lt;g;++r){let n=i(w[s][r][0],w[s+1][r][0]),o=i(w[s][r+1][0],w[s+1][r+1][0]),c=i(w[s][r][0],w[s][r+1][0]),x=i(w[s+1][r][0],w[s+1][r+1][0]),g=[[],[],[],[]];for(let t=0;t&lt;4;++t){(d=[])[0]=w[s][r][1][t],d[1]=w[s+1][r][1][t],d[2]=w[s][r+1][1][t],d[3]=w[s+1][r+1][1][t],d[4]=w[s][r][2][t]*n,d[5]=w[s+1][r][2][t]*n,d[6]=w[s][r+1][2][t]*o,d[7]=w[s+1][r+1][2][t]*o,d[8]=w[s][r][3][t]*c,d[9]=w[s+1][r][3][t]*x,d[10]=w[s][r+1][3][t]*c,d[11]=w[s+1][r+1][3][t]*x,d[12]=0,d[13]=0,d[14]=0,d[15]=0,u=f(d);for(let e=0;e&lt;9;++e){g[t][e]=[];for(let s=0;s&lt;9;++s)g[t][e][s]=p(u,e/8,s/8),g[t][e][s]&gt;255?g[t][e][s]=255:g[t][e][s]&lt;0&amp;&amp;(g[t][e][s]=0)}}h=[];for(let t=3*s,e=3*s+4;t&lt;e;++t)h.push(this.nodes[t].slice(3*r,3*r+4));l=y(h);for(let s=0;s&lt;8;++s)for(let r=0;r&lt;8;++r)(a=new m(l[s][r],[[[g[0][s][r],g[1][s][r],g[2][s][r],g[3][s][r]],[g[0][s][r+1],g[1][s][r+1],g[2][s][r+1],g[3][s][r+1]]],[[g[0][s+1][r],g[1][s+1][r],g[2][s+1][r],g[3][s+1][r]],[g[0][s+1][r+1],g[1][s+1][r+1],g[2][s+1][r+1],g[3][s+1][r+1]]]])).paint(t,e)}}}transform(t){if(t instanceof x)for(let e=0,s=this.nodes.length;e&lt;s;++e)for(let s=0,r=this.nodes[0].length;s&lt;r;++s)this.nodes[e][s]=this.nodes[e][s].add(t);else if(t instanceof g)for(let e=0,s=this.nodes.length;e&lt;s;++e)for(let s=0,r=this.nodes[0].length;s&lt;r;++s)this.nodes[e][s]=this.nodes[e][s].transform(t)}scale(t){for(let e=0,s=this.nodes.length;e&lt;s;++e)for(let s=0,r=this.nodes[0].length;s&lt;r;++s)this.nodes[e][s]=this.nodes[e][s].scale(t)}}document.querySelectorAll("rect,circle,ellipse,path,text").forEach((r,n)=&gt;{let o=r.getAttribute("id");o||(o="patchjs_shape"+n,r.setAttribute("id",o));const i=r.style.fill.match(/^url\(\s*"?\s*#([^\s"]+)"?\s*\)/),a=r.style.stroke.match(/^url\(\s*"?\s*#([^\s"]+)"?\s*\)/);if(i&amp;&amp;i[1]){const a=document.getElementById(i[1]);if(a&amp;&amp;"meshgradient"===a.nodeName){const i=r.getBBox();let l=document.createElementNS(s,"canvas");d(l,{width:i.width,height:i.height});const c=l.getContext("2d");let u=c.createImageData(i.width,i.height);const f=new b(a);"objectBoundingBox"===a.getAttribute("gradientUnits")&amp;&amp;f.scale(new x(i.width,i.height));const p=a.getAttribute("gradientTransform");null!=p&amp;&amp;f.transform(h(p)),"userSpaceOnUse"===a.getAttribute("gradientUnits")&amp;&amp;f.transform(new x(-i.x,-i.y)),f.paintMesh(u.data,l.width),c.putImageData(u,0,0);const y=document.createElementNS(t,"image");d(y,{width:i.width,height:i.height,x:i.x,y:i.y});let g=l.toDataURL();y.setAttributeNS(e,"xlink:href",g),r.parentNode.insertBefore(y,r),r.style.fill="none";const w=document.createElementNS(t,"use");w.setAttributeNS(e,"xlink:href","#"+o);const m="patchjs_clip"+n,M=document.createElementNS(t,"clipPath");M.setAttribute("id",m),M.appendChild(w),r.parentElement.insertBefore(M,r),y.setAttribute("clip-path","url(#"+m+")"),u=null,l=null,g=null}}if(a&amp;&amp;a[1]){const o=document.getElementById(a[1]);if(o&amp;&amp;"meshgradient"===o.nodeName){const i=parseFloat(r.style.strokeWidth.slice(0,-2))*(parseFloat(r.style.strokeMiterlimit)||parseFloat(r.getAttribute("stroke-miterlimit"))||1),a=r.getBBox(),l=Math.trunc(a.width+i),c=Math.trunc(a.height+i),u=Math.trunc(a.x-i/2),f=Math.trunc(a.y-i/2);let p=document.createElementNS(s,"canvas");d(p,{width:l,height:c});const y=p.getContext("2d");let g=y.createImageData(l,c);const w=new b(o);"objectBoundingBox"===o.getAttribute("gradientUnits")&amp;&amp;w.scale(new x(l,c));const m=o.getAttribute("gradientTransform");null!=m&amp;&amp;w.transform(h(m)),"userSpaceOnUse"===o.getAttribute("gradientUnits")&amp;&amp;w.transform(new x(-u,-f)),w.paintMesh(g.data,p.width),y.putImageData(g,0,0);const M=document.createElementNS(t,"image");d(M,{width:l,height:c,x:0,y:0});let S=p.toDataURL();M.setAttributeNS(e,"xlink:href",S);const k="pattern_clip"+n,A=document.createElementNS(t,"pattern");d(A,{id:k,patternUnits:"userSpaceOnUse",width:l,height:c,x:u,y:f}),A.appendChild(M),o.parentNode.appendChild(A),r.style.stroke="url(#"+k+")",g=null,p=null,S=null}}})}();</script>
</svg>
